<?xml version="1.0" standalone="no"?>
<!DOCTYPE svg PUBLIC "-//W3C//DTD SVG 20010904//EN"
 "http://www.w3.org/TR/2001/REC-SVG-20010904/DTD/svg10.dtd">
<svg version="1.0" xmlns="http://www.w3.org/2000/svg"
 width="275.000000pt" height="183.000000pt" viewBox="0 0 275.000000 183.000000"
 preserveAspectRatio="xMidYMid meet">
<metadata>
Created by potrace 1.16, written by Peter Selinger 2001-2019
</metadata>
<g transform="translate(0.000000,183.000000) scale(0.100000,-0.100000)"
fill="#000000" stroke="none">
<path d="M1707 1520 c-51 -13 -77 -27 -241 -132 -160 -102 -206 -141 -247
-215 -19 -32 -39 -53 -54 -57 -38 -10 -398 -249 -428 -286 -49 -57 -70 -110
-75 -186 -8 -132 51 -239 168 -303 60 -33 72 -36 145 -35 49 0 93 6 115 16 57
24 357 225 390 261 17 17 40 52 51 75 17 34 32 48 64 62 54 23 369 232 412
272 53 51 78 120 78 218 0 66 -5 95 -22 131 -59 129 -224 212 -356 179z m194
-52 c54 -29 66 -40 93 -92 62 -120 41 -250 -55 -328 -67 -55 -369 -250 -409
-264 -89 -33 -176 -11 -247 61 -49 49 -67 75 -44 60 5 -3 12 -1 15 4 9 13 83
5 110 -13 38 -24 97 -30 137 -13 57 24 354 224 383 257 45 55 33 152 -26 207
-45 41 -128 49 -188 18 -73 -38 -258 -165 -285 -196 -28 -32 -34 -34 -92 -34
-35 0 -63 3 -63 6 0 10 62 93 84 111 42 36 338 221 374 234 68 24 143 18 213
-18z m-91 -108 c11 -7 8 -10 -16 -10 -17 0 -53 -11 -79 -26 -26 -14 -54 -23
-61 -20 -7 3 -11 0 -9 -7 3 -7 -36 -39 -87 -72 -50 -33 -104 -72 -119 -88 -21
-20 -35 -27 -49 -22 -26 8 -25 16 3 47 20 24 178 131 272 185 42 24 117 31
145 13z m244 -140 c1 -41 -3 -84 -8 -95 -5 -11 -10 -26 -12 -33 -8 -38 -49
-83 -121 -132 -45 -30 -127 -86 -183 -124 -141 -95 -206 -120 -293 -113 -52 3
-78 11 -115 34 -26 17 -46 35 -44 42 1 7 -2 10 -7 7 -10 -6 -43 35 -55 69 -7
20 -7 20 12 0 11 -11 18 -22 16 -24 -6 -7 88 -67 125 -79 48 -17 132 -15 175
3 21 9 85 47 143 85 89 59 108 68 122 58 14 -11 14 -11 4 2 -10 14 0 24 69 70
126 84 163 149 156 271 -2 48 -1 64 6 51 6 -9 10 -51 10 -92z m-221 89 c51
-23 74 -107 40 -147 -14 -16 -218 -156 -300 -205 -8 -5 -16 6 -23 35 -6 24
-26 66 -45 94 l-33 50 92 59 c203 131 217 138 269 114z m-448 -223 c64 -30
145 -119 145 -161 0 -5 -80 -35 -94 -35 -8 0 -24 16 -37 36 -50 82 -145 98
-240 41 -116 -70 -309 -201 -309 -210 0 -5 7 -6 16 -3 9 4 26 4 37 0 18 -6 17
-8 -14 -27 -41 -26 -66 -32 -48 -11 6 7 15 12 19 9 4 -2 16 2 26 10 18 14 17
14 -15 11 -43 -4 -60 -33 -61 -102 0 -89 65 -154 155 -154 34 0 66 17 212 111
l172 110 43 -12 c24 -7 44 -14 46 -15 15 -10 -48 -63 -186 -155 -182 -122
-222 -144 -274 -154 -73 -14 -213 50 -240 111 -7 16 -14 20 -19 13 -12 -20
-33 63 -33 131 1 80 27 140 87 197 47 45 366 255 412 271 55 19 145 14 200
-12z m-185 -251 c12 -19 42 -52 67 -74 l45 -40 -147 -97 c-81 -53 -160 -100
-176 -106 -37 -13 -92 5 -113 37 -24 36 -21 97 7 123 24 22 278 191 289 192 3
0 16 -16 28 -35z"/>
</g>
</svg>
